<?xml version="1.0" encoding="UTF-8" standalone="no"?>
<!-- Created with Inkscape (http://www.inkscape.org/) -->

<svg
   xmlns:dc="http://purl.org/dc/elements/1.1/"
   xmlns:cc="http://creativecommons.org/ns#"
   xmlns:rdf="http://www.w3.org/1999/02/22-rdf-syntax-ns#"
   xmlns:svg="http://www.w3.org/2000/svg"
   xmlns="http://www.w3.org/2000/svg"
   xmlns:sodipodi="http://sodipodi.sourceforge.net/DTD/sodipodi-0.dtd"
   xmlns:inkscape="http://www.inkscape.org/namespaces/inkscape"
   width="373.95218"
   height="60.914238"
   id="svg2"
   version="1.1"
   inkscape:version="0.48.0 r9654"
   sodipodi:docname="logo.svg">
  <defs
     id="defs4" />
  <sodipodi:namedview
     id="base"
     pagecolor="#ffffff"
     bordercolor="#666666"
     borderopacity="1.0"
     inkscape:pageopacity="0.0"
     inkscape:pageshadow="2"
     inkscape:zoom="0.7"
     inkscape:cx="-121.78707"
     inkscape:cy="-9.1346904"
     inkscape:document-units="px"
     inkscape:current-layer="layer1"
     showgrid="false"
     inkscape:window-width="1920"
     inkscape:window-height="1057"
     inkscape:window-x="1432"
     inkscape:window-y="-8"
     inkscape:window-maximized="1"
     fit-margin-top="0"
     fit-margin-left="0"
     fit-margin-right="0"
     fit-margin-bottom="0" />
  <metadata
     id="metadata7">
    <rdf:RDF>
      <cc:Work
         rdf:about="">
        <dc:format>image/svg+xml</dc:format>
        <dc:type
           rdf:resource="http://purl.org/dc/dcmitype/StillImage" />
        <dc:title></dc:title>
      </cc:Work>
    </rdf:RDF>
  </metadata>
  <g
     inkscape:label="Layer 1"
     inkscape:groupmode="layer"
     id="layer1"
     transform="translate(-164.18606,-467.86903)">
    <path
       style="fill:#2c2c2c"
       d="m 185.14282,527.18284 c -9.16865,-3.32572 -16.47815,-10.46104 -19.55607,-19.09007 -0.74588,-2.09111 -1.3759,-6.76763 -1.40004,-10.39229 -0.0753,-11.30537 6.40649,-21.48892 17.23391,-27.07624 6.40797,-3.30673 18.44574,-3.69737 26.01091,-0.84409 10.80252,4.07429 19.7009,16.16849 19.71687,26.79812 0.0103,6.84808 1.97293,11.49785 6.85117,16.23137 7.71201,7.48321 16.87666,8.9628 26.20775,4.23112 7.20684,-3.6545 11.10226,-9.21572 11.7263,-16.74082 1.42971,-17.24044 -15.37109,-28.4774 -31.92823,-21.35472 l -5.00819,2.15447 -2.56753,-2.56754 c -3.2945,-3.2945 -2.59517,-4.92019 3.38256,-7.86317 4.05913,-1.99841 6.34777,-2.37822 14.33059,-2.37822 8.66129,0 9.9728,0.26188 14.85541,2.9663 10.80051,5.98228 16.14459,15.12635 16.14459,27.62447 0,20.86839 -22.14269,35.43999 -42.35958,27.87588 -11.06571,-4.14021 -19.02435,-14.23967 -20.2136,-25.65092 -1.27946,-12.27677 -4.37745,-17.61727 -12.5952,-21.71235 -11.61601,-5.7885 -25.33678,-1.4542 -30.74183,9.71113 -4.84245,10.00318 -1.11197,21.64824 8.80207,27.47647 6.27799,3.69069 16.63985,3.87221 22.52449,0.3946 l 3.91634,-2.31442 2.95828,2.95827 c 1.62705,1.62705 2.64535,3.4646 2.26288,4.08344 -0.38246,0.61884 -3.02604,2.31528 -5.87462,3.76987 -6.63227,3.38669 -17.90284,4.16731 -24.67923,1.70934 z m 147.41844,-11.36093 c -2.71942,-1.10012 -7.25496,-6.53162 -8.02879,-9.6148 -2.41482,-9.62139 7.88437,-19.11227 17.77615,-16.38101 4.27787,1.18117 8.8342,4.543 8.8342,6.51819 0,2.27929 -4.89228,2.94132 -8.03165,1.08684 -3.63657,-2.14817 -5.15306,-2.06952 -8.33349,0.43221 -1.88747,1.48468 -2.63486,3.00082 -2.63486,5.34501 0,5.83945 5.48092,8.67937 11.02332,5.7117 2.42684,-1.29945 4.1561,-1.60977 5.72668,-1.02766 2.55169,0.94574 2.65356,1.27579 1.22036,3.95376 -2.23546,4.17699 -11.73529,6.32883 -17.55192,3.97576 z m 31.57139,-1.28115 c -5.53024,-3.76385 -7.35245,-7.08101 -7.80645,-14.21095 -0.75586,-11.87055 5.51642,-19.76982 15.69788,-19.76982 5.45648,0 10.03489,2.03741 12.97351,5.77327 6.76295,8.5977 4.60882,22.91769 -4.27321,28.40709 -4.63416,2.86407 -12.22444,2.77276 -16.59173,-0.19959 z m 12.71114,-6.2531 c 4.90495,-3.43557 5.33951,-13.54733 0.77821,-18.10863 -3.47348,-3.47348 -7.64879,-3.16384 -10.99722,0.81553 -2.36287,2.80812 -2.6415,3.85886 -2.25598,8.50769 0.71774,8.65495 6.67327,12.84909 12.47499,8.78541 z M 395.8554,516.17 c -0.39192,-0.39191 -0.71258,-6.49451 -0.71258,-13.56131 l 0,-12.84874 5.25,-0.0574 c 2.8875,-0.0316 7.17462,-0.11479 9.52694,-0.18493 3.4199,-0.10198 4.8226,0.4176 7,2.59291 2.62587,2.62335 2.72306,3.10343 2.72306,13.45033 l 0,10.72989 -3.5,0 -3.5,0 -0.29182,-8.94793 c -0.31129,-9.54488 -1.12934,-11.55206 -4.70818,-11.55206 -3.72799,0 -4.96383,2.67342 -5.5,11.89787 -0.48315,8.31226 -0.58551,8.6121 -3.03742,8.89804 -1.39559,0.16275 -2.85809,-0.0247 -3.25,-0.41667 z m 32,0 c -0.39192,-0.39191 -0.71258,-6.49451 -0.71258,-13.56131 l 0,-12.84874 5.25,-0.0574 c 2.8875,-0.0316 7.17462,-0.11479 9.52694,-0.18493 3.4199,-0.10198 4.8226,0.4176 7,2.59291 2.62587,2.62335 2.72306,3.10343 2.72306,13.45033 l 0,10.72989 -3.5,0 -3.5,0 -0.29182,-8.94793 c -0.31129,-9.54488 -1.12934,-11.55206 -4.70818,-11.55206 -3.72799,0 -4.96383,2.67342 -5.5,11.89787 -0.48315,8.31226 -0.58551,8.6121 -3.03742,8.89804 -1.39559,0.16275 -2.85809,-0.0247 -3.25,-0.41667 z m 36.65413,-1.2973 c -4.7186,-2.87727 -6.36671,-5.87541 -6.36671,-11.58194 0,-7.30097 3.21617,-11.54391 10.25,-13.52232 8.34792,-2.34803 16.99816,3.32035 17.16174,11.24585 l 0.0883,4.27647 -9.42036,0.5 c -9.72958,0.51641 -12.14326,1.73872 -7.55848,3.82769 3.33496,1.51951 4.37878,1.47292 7.87731,-0.35158 2.58811,-1.3497 3.14684,-1.34883 5.21786,0.008 7.40474,4.85178 -9.48461,10.33255 -17.24962,5.59768 z m 12.4469,-15.81128 c -0.54641,-2.83728 -5.20029,-3.90254 -8.26798,-1.89252 -3.59957,2.35853 -2.34849,3.62186 3.58671,3.62186 4.21443,0 4.96118,-0.27586 4.68127,-1.72934 z m 20.48494,15.76982 c -8.73319,-5.32493 -8.21176,-18.91971 0.90723,-23.65344 4.65095,-2.41434 10.76089,-2.18879 15.21097,0.56151 2.67614,1.65394 3.60838,2.86652 3.3877,4.40645 -0.40636,2.83571 -3.20584,3.21868 -7.93604,1.08566 -3.13081,-1.4118 -4.37613,-1.53036 -6.39802,-0.60912 -5.54984,2.52867 -5.17794,10.80431 0.59295,13.19469 2.48634,1.02988 3.39419,0.90137 6.47545,-0.91662 2.7615,-1.62932 4.02849,-1.87638 5.52245,-1.07683 2.75155,1.47258 2.40875,3.39396 -1.13797,6.37833 -3.92663,3.30404 -11.75224,3.6003 -16.62472,0.62937 z m 30.20145,0.58454 c -1.68278,-1.2316 -2.05628,-2.86438 -2.35481,-10.29439 -0.24944,-6.20809 -0.76916,-9.06812 -1.75,-9.63032 -1.8591,-1.06559 -1.78525,-5.33665 0.10481,-6.06194 0.825,-0.31658 1.5,-1.45292 1.5,-2.5252 0,-3.62654 1.16298,-5.11317 4,-5.11317 2.81269,0 4,1.48777 4,5.01224 0,1.15578 0.8433,1.96843 2.25,2.16821 3.48582,0.49506 3.7189,5.50068 0.31638,6.79431 -2.36172,0.89792 -2.56638,1.45436 -2.56638,6.97744 0,5.32981 0.28549,6.18875 2.55017,7.67263 1.6535,1.08342 2.44463,2.41007 2.25,3.77305 -0.23916,1.67486 -1.11319,2.16196 -4.30017,2.39652 -2.36644,0.17417 -4.81678,-0.30339 -6,-1.16938 z"
       id="path3102"
       inkscape:connector-curvature="0" />
  </g>
</svg>
